<svg width="50" height="50" viewBox="0 0 50 50" fill="none" xmlns="http://www.w3.org/2000/svg">
<path d="M17 37C14.8 37 13.02 38.8 13.02 41C13.02 43.2 14.8 45 17 45C19.2 45 21 43.2 21 41C21 38.8 19.2 37 17 37ZM5 5V9H9L16.2 24.18L13.5 29.08C13.18 29.64 13 30.3 13 31C13 33.2 14.8 35 17 35H41V31H17.84C17.56 31 17.34 30.78 17.34 30.5L17.4 30.26L19.2 27H34.1C35.6 27 36.92 26.18 37.6 24.94L44.76 11.96C44.92 11.68 45 11.34 45 11C45 9.9 44.1 9 43 9H13.42L11.54 5H5ZM37 37C34.8 37 33.02 38.8 33.02 41C33.02 43.2 34.8 45 37 45C39.2 45 41 43.2 41 41C41 38.8 39.2 37 37 37Z" fill="#9AB4F5"/>
</svg>
