<svg width="512" height="512" viewBox="0 0 512 512" fill="none" xmlns="http://www.w3.org/2000/svg">
<path d="M258.419 477.837C229.441 477.891 200.739 472.218 173.961 461.144C147.183 450.07 122.858 433.813 102.382 413.308C16.331 327.256 16.331 187.251 102.382 101.199C122.827 80.6399 147.147 64.3395 173.933 53.2418C200.72 42.144 229.442 36.4694 258.436 36.5462C317.387 36.5462 372.807 59.4979 414.473 101.199C456.157 142.883 479.126 198.303 479.126 257.253C479.126 316.204 456.174 371.624 414.473 413.308C393.994 433.812 369.665 450.069 342.884 461.143C316.104 472.217 287.399 477.89 258.419 477.837ZM258.436 71.8565C234.08 71.7874 209.952 76.5519 187.45 85.8739C164.947 95.196 144.519 108.89 127.347 126.164C92.3366 161.174 73.0571 207.731 73.0571 257.253C73.0571 306.776 92.3366 353.315 127.347 388.343C199.627 460.623 317.246 460.641 389.508 388.343C424.519 353.333 443.816 306.776 443.816 257.253C443.816 207.731 424.536 161.192 389.508 126.164C372.336 108.896 351.91 95.2046 329.412 85.8828C306.913 76.561 282.789 71.7936 258.436 71.8565Z" fill="black"/>
<path d="M183.525 349.802C180.03 349.81 176.612 348.779 173.704 346.84C170.795 344.902 168.529 342.143 167.191 338.914C165.854 335.685 165.506 332.131 166.192 328.704C166.878 325.277 168.566 322.13 171.043 319.665L320.847 169.86C322.487 168.221 324.433 166.921 326.574 166.034C328.716 165.147 331.011 164.69 333.33 164.69C335.648 164.69 337.943 165.147 340.085 166.034C342.227 166.921 344.173 168.221 345.812 169.86C347.451 171.5 348.751 173.446 349.638 175.587C350.526 177.729 350.982 180.025 350.982 182.343C350.982 184.661 350.526 186.956 349.638 189.098C348.751 191.24 347.451 193.186 345.812 194.825L196.008 344.629C194.373 346.274 192.428 347.578 190.285 348.466C188.142 349.354 185.845 349.808 183.525 349.802Z" fill="black"/>
<path d="M333.33 349.802C331.011 349.804 328.715 349.349 326.572 348.461C324.43 347.573 322.485 346.271 320.847 344.629L171.043 194.825C169.404 193.186 168.104 191.24 167.217 189.098C166.33 186.956 165.873 184.661 165.873 182.343C165.873 180.025 166.33 177.729 167.217 175.587C168.104 173.446 169.404 171.5 171.043 169.86C172.683 168.221 174.629 166.921 176.77 166.034C178.912 165.147 181.207 164.69 183.526 164.69C185.844 164.69 188.139 165.147 190.281 166.034C192.423 166.921 194.369 168.221 196.008 169.86L345.812 319.665C348.289 322.13 349.977 325.277 350.663 328.704C351.349 332.131 351.001 335.685 349.664 338.914C348.326 342.143 346.06 344.902 343.152 346.84C340.243 348.779 336.825 349.81 333.33 349.802Z" fill="black"/>
</svg>
