<svg width="40" height="40" viewBox="0 0 40 40" fill="none" xmlns="http://www.w3.org/2000/svg">
<g clip-path="url(#clip0_405_626)">
<path d="M32.75 36.9999H29.9167V29.8557C29.9155 28.745 29.4738 27.6801 28.6885 26.8948C27.9031 26.1094 26.8383 25.6677 25.7276 25.6666H14.2724C13.1617 25.6677 12.0969 26.1094 11.3115 26.8948C10.5262 27.6801 10.0845 28.745 10.0833 29.8557V36.9999H7.25V29.8557C7.25225 27.9939 7.99283 26.209 9.3093 24.8926C10.6258 23.5761 12.4106 22.8355 14.2724 22.8333H25.7276C27.5894 22.8355 29.3742 23.5761 30.6907 24.8926C32.0072 26.209 32.7477 27.9939 32.75 29.8557V36.9999Z" fill="black"/>
<path d="M20 20C18.3189 20 16.6755 19.5015 15.2777 18.5675C13.8798 17.6335 12.7904 16.306 12.147 14.7528C11.5037 13.1996 11.3354 11.4906 11.6633 9.84174C11.9913 8.1929 12.8009 6.67834 13.9896 5.4896C15.1783 4.30085 16.6929 3.4913 18.3417 3.16333C19.9906 2.83535 21.6996 3.00368 23.2528 3.64703C24.806 4.29037 26.1335 5.37984 27.0675 6.77766C28.0015 8.17547 28.5 9.81886 28.5 11.5C28.4978 13.7537 27.6015 15.9144 26.0079 17.5079C24.4144 19.1015 22.2537 19.9978 20 20ZM20 5.83334C18.8792 5.83334 17.7837 6.16568 16.8518 6.78834C15.9199 7.411 15.1936 8.29602 14.7647 9.33146C14.3358 10.3669 14.2236 11.5063 14.4422 12.6055C14.6609 13.7047 15.2006 14.7144 15.9931 15.5069C16.7856 16.2994 17.7953 16.8391 18.8945 17.0578C19.9937 17.2764 21.1331 17.1642 22.1685 16.7353C23.204 16.3064 24.089 15.5801 24.7117 14.6482C25.3343 13.7164 25.6667 12.6208 25.6667 11.5C25.6667 9.99711 25.0696 8.55577 24.0069 7.49307C22.9442 6.43036 21.5029 5.83334 20 5.83334Z" fill="black"/>
</g>
<defs>
<clipPath id="clip0_405_626">
<rect width="34" height="34" fill="white" transform="translate(3 3)"/>
</clipPath>
</defs>
</svg>
