<svg width="40" height="40" viewBox="0 0 40 40" fill="none" xmlns="http://www.w3.org/2000/svg">
<path d="M30 20C30 20.789 29.3604 21.4286 28.5714 21.4286H21.4286V28.5714C21.4286 29.3604 20.789 30 20 30V30C19.211 30 18.5714 29.3604 18.5714 28.5714V21.4286H11.4286C10.6396 21.4286 10 20.789 10 20V20C10 19.211 10.6396 18.5714 11.4286 18.5714H18.5714V11.4286C18.5714 10.6396 19.211 10 20 10V10C20.789 10 21.4286 10.6396 21.4286 11.4286V18.5714H28.5714C29.3604 18.5714 30 19.211 30 20V20Z" fill="black"/>
</svg>
