<svg width="38" height="38" viewBox="0 0 38 38" fill="none" xmlns="http://www.w3.org/2000/svg">
<path d="M26.5 11.5V15.25C26.5 15.5815 26.3683 15.8995 26.1339 16.1339C25.8995 16.3683 25.5815 16.5 25.25 16.5H24V11.5H14V16.5H12.75C12.4185 16.5 12.1005 16.3683 11.8661 16.1339C11.6317 15.8995 11.5 15.5815 11.5 15.25V11.5H6.5V34H31.5V11.5H26.5ZM11.5 9C11.5 7.01088 12.2902 5.10322 13.6967 3.6967C15.1032 2.29018 17.0109 1.5 19 1.5C20.9891 1.5 22.8968 2.29018 24.3033 3.6967C25.7098 5.10322 26.5 7.01088 26.5 9H32.75C33.0815 9 33.3995 9.1317 33.6339 9.36612C33.8683 9.60054 34 9.91848 34 10.25V35.25C34 35.5815 33.8683 35.8995 33.6339 36.1339C33.3995 36.3683 33.0815 36.5 32.75 36.5H5.25C4.91848 36.5 4.60054 36.3683 4.36612 36.1339C4.1317 35.8995 4 35.5815 4 35.25V10.25C4 9.91848 4.1317 9.60054 4.36612 9.36612C4.60054 9.1317 4.91848 9 5.25 9H11.5ZM14 9H24C24 7.67392 23.4732 6.40215 22.5355 5.46447C21.5979 4.52678 20.3261 4 19 4C17.6739 4 16.4021 4.52678 15.4645 5.46447C14.5268 6.40215 14 7.67392 14 9Z" fill="black"/>
<path d="M7.125 26.125H30.875V28.5H7.125V26.125Z" fill="black"/>
</svg>
