<svg width="40" height="40" viewBox="0 0 40 40" fill="none" xmlns="http://www.w3.org/2000/svg">
<path d="M32.1023 34.5306L22.5568 24.9715C21.7045 25.6543 20.7244 26.1949 19.6165 26.5932C18.5085 26.9915 17.3295 27.1906 16.0795 27.1906C12.983 27.1906 10.3625 26.1169 8.21818 23.9696C6.07273 21.8211 5 19.1963 5 16.0953C5 12.9943 6.07273 10.3696 8.21818 8.22105C10.3625 6.07368 12.983 5 16.0795 5C19.1761 5 21.7972 6.07368 23.9426 8.22105C26.0869 10.3696 27.1591 12.9943 27.1591 16.0953C27.1591 17.3471 26.9602 18.5277 26.5625 19.6373C26.1648 20.7468 25.625 21.7283 24.9432 22.5818L34.5312 32.1835C34.8438 32.4964 35 32.8805 35 33.3357C35 33.7909 34.8295 34.1892 34.4886 34.5306C34.1761 34.8435 33.7784 35 33.2955 35C32.8125 35 32.4148 34.8435 32.1023 34.5306ZM16.0795 23.7767C18.2102 23.7767 20.0216 23.0302 21.5136 21.5371C23.0045 20.043 23.75 18.229 23.75 16.0953C23.75 13.9616 23.0045 12.1477 21.5136 10.6535C20.0216 9.16045 18.2102 8.41394 16.0795 8.41394C13.9489 8.41394 12.1375 9.16045 10.6455 10.6535C9.15454 12.1477 8.40909 13.9616 8.40909 16.0953C8.40909 18.229 9.15454 20.043 10.6455 21.5371C12.1375 23.0302 13.9489 23.7767 16.0795 23.7767Z" fill="white"/>
</svg>
