<svg width="41" height="40" viewBox="0 0 41 40" fill="none" xmlns="http://www.w3.org/2000/svg">
<path d="M32.6023 34.5306L23.0568 24.9715C22.2045 25.6543 21.2244 26.1949 20.1165 26.5932C19.0085 26.9915 17.8295 27.1906 16.5795 27.1906C13.483 27.1906 10.8625 26.1169 8.71818 23.9696C6.57273 21.8211 5.5 19.1963 5.5 16.0953C5.5 12.9943 6.57273 10.3696 8.71818 8.22105C10.8625 6.07368 13.483 5 16.5795 5C19.6761 5 22.2972 6.07368 24.4426 8.22105C26.5869 10.3696 27.6591 12.9943 27.6591 16.0953C27.6591 17.3471 27.4602 18.5277 27.0625 19.6373C26.6648 20.7468 26.125 21.7283 25.4432 22.5818L35.0312 32.1835C35.3437 32.4964 35.5 32.8805 35.5 33.3357C35.5 33.7909 35.3295 34.1892 34.9886 34.5306C34.6761 34.8435 34.2784 35 33.7955 35C33.3125 35 32.9148 34.8435 32.6023 34.5306ZM16.5795 23.7767C18.7102 23.7767 20.5216 23.0302 22.0136 21.5371C23.5045 20.043 24.25 18.229 24.25 16.0953C24.25 13.9616 23.5045 12.1477 22.0136 10.6535C20.5216 9.16045 18.7102 8.41394 16.5795 8.41394C14.4489 8.41394 12.6375 9.16045 11.1455 10.6535C9.65454 12.1477 8.90909 13.9616 8.90909 16.0953C8.90909 18.229 9.65454 20.043 11.1455 21.5371C12.6375 23.0302 14.4489 23.7767 16.5795 23.7767Z" fill="black"/>
</svg>
