<svg width="26" height="25" viewBox="0 0 26 25" fill="none" xmlns="http://www.w3.org/2000/svg">
<path d="M17.6875 7.8125V10.1562C17.6875 10.3635 17.6052 10.5622 17.4587 10.7087C17.3122 10.8552 17.1135 10.9375 16.9062 10.9375H16.125V7.8125H9.875V10.9375H9.09375C8.88655 10.9375 8.68784 10.8552 8.54132 10.7087C8.39481 10.5622 8.3125 10.3635 8.3125 10.1562V7.8125H5.1875V21.875H20.8125V7.8125H17.6875ZM8.3125 6.25C8.3125 5.0068 8.80636 3.81451 9.68544 2.93544C10.5645 2.05636 11.7568 1.5625 13 1.5625C14.2432 1.5625 15.4355 2.05636 16.3146 2.93544C17.1936 3.81451 17.6875 5.0068 17.6875 6.25H21.5938C21.801 6.25 21.9997 6.33231 22.1462 6.47882C22.2927 6.62534 22.375 6.82405 22.375 7.03125V22.6562C22.375 22.8635 22.2927 23.0622 22.1462 23.2087C21.9997 23.3552 21.801 23.4375 21.5938 23.4375H4.40625C4.19905 23.4375 4.00034 23.3552 3.85382 23.2087C3.70731 23.0622 3.625 22.8635 3.625 22.6562V7.03125C3.625 6.82405 3.70731 6.62534 3.85382 6.47882C4.00034 6.33231 4.19905 6.25 4.40625 6.25H8.3125ZM9.875 6.25H16.125C16.125 5.4212 15.7958 4.62634 15.2097 4.04029C14.6237 3.45424 13.8288 3.125 13 3.125C12.1712 3.125 11.3763 3.45424 10.7903 4.04029C10.2042 4.62634 9.875 5.4212 9.875 6.25Z" fill="black"/>
<path d="M5.1875 17.1875H20.8125V18.75H5.1875V17.1875Z" fill="black"/>
</svg>
